<?xml version="1.0" encoding="utf-8"?>
<!-- Generator: Adobe Illustrator 25.0.1, SVG Export Plug-In . SVG Version: 6.00 Build 0)  -->
<svg version="1.1" id="Layer_1" xmlns="http://www.w3.org/2000/svg" xmlns:xlink="http://www.w3.org/1999/xlink" x="0px" y="0px"
	 viewBox="0 0 24 24" style="enable-background:new 0 0 24 24;" xml:space="preserve">
<style type="text/css">
	.st0{fill:none;}
	.st1{fill:#2CA58D;}
</style>
<rect class="st0" width="24" height="24"/>
<path class="st1" d="M12,21.6H0v-2.4h6.9l0,0c-0.9-3.4-3.5-6-6.9-6.9C0.8,12.1,1.6,12,2.4,12C7.7,12,12,16.3,12,21.6z M24,12.3
	c-0.8-0.2-1.6-0.3-2.4-0.3c-3.5,0-6.6,1.9-8.3,4.7c0.3,0.8,0.6,1.6,0.8,2.5c0.2,0.8,0.2,1.6,0.2,2.4h2.4H24v-2.4h-6.9
	C18,15.8,20.6,13.2,24,12.3z M16.4,10.8c0.9-2.5,2.7-4.6,4.9-6C16.1,5,12,9.2,12,14.4c0,0,0,0,0,0C13.1,12.9,14.6,11.7,16.4,10.8z
	 M11.3,8.2c-1-2.6-3-4.8-5.7-5.8c1.7,2.2,2.8,5,2.8,8.1c0,0.3,0,0.5,0,0.7c0.5,0.3,1,0.6,1.5,1C10.1,10.8,10.6,9.4,11.3,8.2z"/>
</svg>
